# xmcd
#
# Track frame offsets: 
#        150
#        13517
#        27164
#        40059
#        54129
#        65717
#        80203
#        93142
#        106951
#        118025
#        133028
#        146730
#        158754
#        174781
#        191097
#        208972
#        223493
#        237849
#        249398
#
# Disc length: 3534 seconds
#
# Revision: 0
# Processed by: cddbd v1.5.1PL0 Copyright (c) Steve Scherf et al.
# Submitted via: ExactAudioCopy v0.95a5
#
DISCID=0d0dcc13
DTITLE=许冠杰 - 许冠杰情歌篇
DYEAR=1989
DGENRE=Pop
TTITLE0=双星情歌
TTITLE1=天才白痴往日情
TTITLE2=青春梦里人
TTITLE3=梨涡浅笑
TTITLE4=夜半轻私语
TTITLE5=为你
TTITLE6=柔情泪
TTITLE7=相思万千重
TTITLE8=锡晒你
TTITLE9=春梦
TTITLE10=夜夜念奴娇
TTITLE11=我爱你
TTITLE12=难忘你
TTITLE13=我像一片云
TTITLE14=这一种感觉
TTITLE15=共你常为伴
TTITLE16=断肠梦
TTITLE17=往事
TTITLE18=我的心仍属於你
EXTD=
EXTT0=
EXTT1=
EXTT2=
EXTT3=
EXTT4=
EXTT5=
EXTT6=
EXTT7=
EXTT8=
EXTT9=
EXTT10=
EXTT11=
EXTT12=
EXTT13=
EXTT14=
EXTT15=
EXTT16=
EXTT17=
EXTT18=
PLAYORDER=
